# xmcd CD database file
#
# Track frame offsets:
#	150
#	20796
#	37079
#	56909
#	76332
#	96780
#	113279
#	135831
#	155846
#	170960
#	193516
#	207325
#	223384
#	242551
#	257308
#	271497
#	287400
#	304315
#	325190
#	341671
#
# Disc length: 4765 seconds
#
# Revision: 0
# Processed by: cddbd v1.5.2PL0 Copyright (c) Steve Scherf et al.
# Submitted via: CDex 2.23
#
DISCID=2a129b14
DTITLE=Reverend Gary Davis - Three Classic Albums Plus
DYEAR=2017
DGENRE=Blues
TTITLE0=Track 3 Hold To God's Unchanging Hand - Track 3 Hold To God's Unchanging Hand
TTITLE1=Track 4 Bad Company Brought Me Here - Track 4 Bad Company Brought Me Here
TTITLE2=Track 5 I Decided To Go Down - Track 5 I Decided To Go Down
TTITLE3=Track 6 Lord, I Looked Down The Road - Track 6 Lord, I Looked Down The Road
TTITLE4=Track 7 Little Bitty Baby - Track 7 Little Bitty Baby
TTITLE5=Track 8 No One Can Do Me Like Jesus - Track 8 No One Can Do Me Like Jesus
TTITLE6=Track 9 Lost Boy In The Wilderness - Track 9 Lost Boy In The Wilderness
TTITLE7=Track 10 Tryin' To Get To Heaven - Track 10 Tryin' To Get To Heaven
TTITLE8=Track 1 You Got To Move - Track 1 You Got To Move
TTITLE9=Track 2 Crucifiction - Track 2 Crucifiction
TTITLE10=Track 3 I'm Glad I'm In That Number - Track 3 I'm Glad I'm In That Number
TTITLE11=Track 4 There's A Table Sittin' In Heaven - Track 4 There's A Table Sittin' In Heaven
TTITLE12=Track 5 Motherless Child - Track 5 Motherless Child
TTITLE13=Track 6 There's A Bright Side Somewhere - Track 6 There's A Bright Side Somewhere
TTITLE14=Track 7 I'll Be All Right Some Day - Track 7 I'll Be All Right Some Day
TTITLE15=Track 8 You Better Mind - Track 8 You Better Mind
TTITLE16=Track 9 A Little More Faith - Track 9 A Little More Faith
TTITLE17=Track 10 I'll Fly Away - Track 10 I'll Fly Away
TTITLE18=Track 11 God's Gonna Separate - Track 11 God's Gonna Separate
TTITLE19=Track 12 When I Die I Live Again - Track 12 When I Die I Live Again
EXTD=YEAR: 2017
EXTT0=
EXTT1=
EXTT2=
EXTT3=
EXTT4=
EXTT5=
EXTT6=
EXTT7=
EXTT8=
EXTT9=
EXTT10=
EXTT11=
EXTT12=
EXTT13=
EXTT14=
EXTT15=
EXTT16=
EXTT17=
EXTT18=
EXTT19=
PLAYORDER=
